<!-- Generated by IcoMoon.io -->
<svg version="1.1" xmlns="http://www.w3.org/2000/svg" width="43" height="32" viewBox="0 0 43 32">
<title>konvertmin</title>
<path d="M37.342 0.006h-32.008c-2.201 0-3.982 1.8-3.982 4.001l-0.019 24.006c0 2.201 1.8 4.001 4.001 4.001h32.008c2.201 0 4.001-1.8 4.001-4.001v-24.006c0-2.201-1.8-4.001-4.001-4.001zM36.542 8.51l-14.142 8.84c-0.302 0.188-0.668 0.3-1.060 0.3s-0.759-0.112-1.069-0.305l0.009 0.005-14.145-8.842c-0.504-0.301-0.836-0.843-0.836-1.463 0-0.938 0.761-1.699 1.699-1.699 0.349 0 0.673 0.105 0.943 0.286l-0.006-0.004 13.403 8.383 13.403-8.383c0.264-0.176 0.588-0.282 0.937-0.282 0.938 0 1.699 0.761 1.699 1.699 0 0.62-0.332 1.162-0.828 1.459l-0.008 0.004z"></path>
</svg>
