<!-- Generated by IcoMoon.io -->
<svg version="1.1" xmlns="http://www.w3.org/2000/svg" width="230" height="32" viewBox="0 0 230 32">
<title>webstudio</title>
<path fill="#2196f3" d="M13.189 0.946h5.325l3.37 9.777 3.412-9.777h5.284l-5.076 13.438 3.744 9.403 8.363-22.924h6.241l-11.816 29.539h-4.951l-5.201-12.398-5.159 12.398h-4.951l-11.774-29.539h6.157l8.404 22.924 3.661-9.403-5.034-13.438zM54.769 30.818c-2.357 0-4.396-0.512-6.116-1.539-1.659-1.002-2.998-2.38-3.924-4.023l-0.028-0.055c-0.89-1.587-1.415-3.484-1.415-5.503 0-0.025 0-0.051 0-0.076l-0 0.004c0-2.053 0.458-3.938 1.373-5.658 0.944-1.742 2.301-3.152 3.945-4.133l0.049-0.027c1.72-1.054 3.772-1.581 6.157-1.581 2.384 0 4.424 0.528 6.116 1.581 1.652 0.995 2.971 2.394 3.842 4.062l0.027 0.056c0.865 1.565 1.373 3.43 1.373 5.415 0 0.027-0 0.054-0 0.081l0-0.004c0 0.72-0.042 1.344-0.125 1.872h-16.85c0.139 1.691 0.763 3.024 1.872 3.994 1.136 0.971 2.44 1.456 3.911 1.456 1.109 0 2.149-0.264 3.12-0.791 0.998-0.555 1.679-1.275 2.039-2.163l4.785 1.331c-0.805 1.664-2.095 3.037-3.869 4.119-1.776 1.055-3.869 1.581-6.282 1.581zM49.069 17.754h11.4c-0.166-1.637-0.791-2.954-1.872-3.952-1.054-1.026-2.344-1.539-3.869-1.539-1.498 0-2.788 0.512-3.869 1.539-1.054 0.998-1.65 2.315-1.789 3.952zM83.211 30.818c-1.664 0-3.148-0.374-4.452-1.123-1.292-0.743-2.335-1.787-3.058-3.039l-0.021-0.040v3.786h-4.868v-30.371h5.575v12.398c0.752-1.273 1.777-2.311 2.999-3.057l0.038-0.022c1.277-0.749 2.76-1.123 4.452-1.123 1.888 0 3.536 0.528 4.951 1.581 1.443 1.026 2.567 2.4 3.37 4.119 0.805 1.72 1.207 3.605 1.207 5.658 0 2.107-0.443 4.008-1.331 5.7-0.867 1.665-2.109 3.027-3.621 4.011l-0.041 0.025c-1.525 0.998-3.258 1.498-5.201 1.498zM81.671 26.075c1.194 0 2.234-0.291 3.12-0.874 0.904-0.576 1.625-1.364 2.106-2.297l0.016-0.033c0.528-0.998 0.79-2.080 0.79-3.245 0-1.192-0.25-2.288-0.749-3.287-0.451-1.001-1.132-1.829-1.979-2.443l-0.018-0.012c-0.8-0.573-1.798-0.916-2.877-0.916-0.027 0-0.054 0-0.081 0.001l0.004-0c-1.219 0-2.343 0.416-3.37 1.248-0.976 0.786-1.742 1.793-2.228 2.946l-0.018 0.049v5.201c0.362 1.082 1.069 1.968 2.122 2.663 1.056 0.666 2.109 0.998 3.162 0.998z"></path>
<path fill="#000" d="M116.569 8.601c-0.25-0.277-0.776-0.638-1.581-1.082-0.805-0.472-1.776-0.888-2.912-1.248-1.021-0.369-2.2-0.582-3.428-0.582-0.009 0-0.018 0-0.027 0h0.001c-3.135 0-4.701 1.109-4.701 3.328 0 0.805 0.25 1.442 0.749 1.914s1.248 0.874 2.247 1.207c0.999 0.333 2.247 0.693 3.744 1.082 1.941 0.499 3.62 1.082 5.034 1.747 1.442 0.666 2.538 1.552 3.287 2.663 0.776 1.082 1.165 2.523 1.165 4.327 0 2.107-0.512 3.813-1.539 5.117-0.999 1.275-2.33 2.205-3.994 2.788s-3.468 0.874-5.409 0.874c-2.219 0-4.424-0.333-6.615-0.998-2.163-0.693-4.092-1.637-5.783-2.829l2.538-4.951c0.25 0.25 0.693 0.582 1.331 0.998 0.638 0.389 1.415 0.791 2.33 1.207 0.915 0.389 1.914 0.72 2.996 0.998 0.986 0.264 2.118 0.416 3.286 0.416 0 0 0 0 0.001 0h-0c3.162 0 4.743-1.013 4.743-3.037 0-0.859-0.32-1.552-0.957-2.080-0.638-0.528-1.539-0.971-2.704-1.331-1.136-0.36-2.469-0.763-3.994-1.207-1.887-0.528-3.453-1.109-4.701-1.747-1.221-0.666-2.136-1.483-2.746-2.455-0.61-0.998-0.915-2.261-0.915-3.786 0-2.024 0.472-3.717 1.415-5.076 0.971-1.387 2.274-2.427 3.911-3.12 1.637-0.72 3.453-1.082 5.45-1.082 2.053 0 3.967 0.333 5.741 0.999 1.776 0.666 3.301 1.429 4.576 2.288l-2.538 4.66zM137.77 29.278c-0.749 0.333-1.68 0.666-2.787 0.998-0.998 0.317-2.146 0.499-3.336 0.499-0.012 0-0.024-0-0.036-0h0.002c-1.027 0-1.97-0.181-2.829-0.541-0.862-0.362-1.57-0.95-2.070-1.689l-0.010-0.016c-0.499-0.805-0.749-1.845-0.749-3.12v-12.523h-2.871v-4.285h2.871v-7.073h5.575v7.073h4.577v4.285h-4.577v10.651c0 0.749 0.192 1.29 0.582 1.623 0.416 0.333 0.915 0.499 1.498 0.499s1.151-0.096 1.706-0.291c0.554-0.194 0.999-0.36 1.331-0.499l1.123 4.41zM141.713 22.247v-13.646h5.575v12.44c0 3.356 1.207 5.034 3.62 5.034 1.082 0 2.122-0.32 3.12-0.957 1.026-0.666 1.858-1.664 2.496-2.996v-13.521h5.575v15.56c0 0.61 0.098 1.040 0.291 1.29 0.194 0.222 0.541 0.36 1.040 0.416v4.535c-0.721 0.159-1.548 0.25-2.397 0.25-0.006 0-0.011 0-0.017 0h0.001c-0.999 0-1.816-0.222-2.455-0.666-0.61-0.472-0.971-1.109-1.082-1.914l-0.125-1.747c-0.971 1.498-2.219 2.621-3.744 3.37s-3.204 1.123-5.034 1.123c-2.247 0-3.952-0.72-5.117-2.163-1.165-1.471-1.747-3.605-1.747-6.407zM167.556 19.501c0-2.080 0.416-3.98 1.248-5.7s1.984-3.079 3.453-4.077c1.471-0.998 3.149-1.498 5.034-1.498 1.61 0 3.052 0.402 4.327 1.207 1.304 0.776 2.317 1.776 3.037 2.996v-12.398h5.575v24.131c0 0.61 0.098 1.040 0.291 1.29 0.195 0.222 0.528 0.36 0.999 0.416v4.535c-0.999 0.194-1.789 0.291-2.371 0.291-0.999 0-1.831-0.25-2.496-0.749-0.604-0.46-1.010-1.154-1.081-1.945l-0.001-0.011-0.083-1.373c-0.786 1.334-1.904 2.399-3.242 3.099l-0.044 0.021c-1.238 0.681-2.713 1.082-4.282 1.082-0.001 0-0.002 0-0.004 0h0c-2.024 0-3.813-0.499-5.367-1.498-1.546-1.031-2.787-2.405-3.633-4.018l-0.028-0.060c-0.887-1.72-1.331-3.632-1.331-5.741zM184.655 22.413v-5.201c-0.46-1.247-1.253-2.28-2.27-3.024l-0.018-0.013c-1.082-0.805-2.191-1.207-3.328-1.207-1.136 0-2.135 0.32-2.996 0.957-0.865 0.626-1.546 1.454-1.982 2.417l-0.015 0.038c-0.447 0.933-0.708 2.028-0.708 3.184 0 0.022 0 0.043 0 0.065l-0-0.003c0 1.192 0.264 2.288 0.791 3.287 0.515 0.954 1.232 1.738 2.098 2.315l0.023 0.015c0.915 0.555 1.955 0.832 3.12 0.832 1.054 0 2.095-0.347 3.12-1.040 1.054-0.693 1.776-1.568 2.163-2.621zM196.951 5.564v-5.533h5.575v5.533h-5.575zM196.951 30.402v-21.801h5.575v21.801h-5.575zM218.872 30.818c-2.386 0-4.437-0.512-6.157-1.539-1.654-1.025-2.981-2.432-3.882-4.103l-0.028-0.058c-0.865-1.591-1.373-3.484-1.373-5.496 0-0.028 0-0.056 0-0.083l-0 0.004c0-2.024 0.458-3.896 1.373-5.617 0.946-1.716 2.286-3.11 3.904-4.092l0.048-0.027c1.72-1.055 3.759-1.581 6.116-1.581s4.383 0.528 6.074 1.581c1.679 0.993 3.023 2.391 3.925 4.063l0.027 0.055c0.865 1.598 1.373 3.498 1.373 5.517 0 0.035-0 0.070-0 0.105l0-0.005c0 1.997-0.458 3.856-1.373 5.575-0.915 1.72-2.232 3.106-3.952 4.16-1.691 1.026-3.717 1.539-6.074 1.539zM213.172 19.543c0 1.275 0.25 2.413 0.749 3.412 0.477 0.943 1.17 1.716 2.017 2.275l0.022 0.014c0.859 0.555 1.831 0.832 2.912 0.832 1.054 0 2.011-0.277 2.871-0.832 0.859-0.582 1.539-1.36 2.039-2.33 0.526-0.998 0.791-2.136 0.791-3.412 0-1.248-0.264-2.357-0.791-3.328-0.499-0.998-1.179-1.776-2.039-2.33-0.79-0.547-1.769-0.874-2.825-0.874-0.016 0-0.032 0-0.048 0l0.002-0c-0.019-0-0.043-0-0.066-0-1.063 0-2.049 0.327-2.864 0.885l0.017-0.011c-0.859 0.555-1.539 1.331-2.039 2.33-0.499 0.971-0.749 2.095-0.749 3.37z"></path>
</svg>
