<!-- Generated by IcoMoon.io -->
<svg version="1.1" xmlns="http://www.w3.org/2000/svg" width="32" height="32" viewBox="0 0 32 32">
<title>trubkamin</title>
<path d="M27.45 20.876l-4.206-0.481c-0.116-0.014-0.25-0.023-0.386-0.023-0.91 0-1.734 0.369-2.33 0.965l-3.048 3.048c-4.723-2.438-8.476-6.192-10.847-10.776l-0.065-0.139 3.066-3.059c0.597-0.596 0.965-1.42 0.965-2.33 0-0.136-0.008-0.27-0.024-0.402l0.002 0.016-0.481-4.174c-0.199-1.657-1.597-2.929-3.291-2.929-0.001 0-0.003 0-0.004 0h-2.865c-1.872-0.002-3.428 1.554-3.313 3.426 0.879 14.142 12.19 25.434 26.315 26.313 1.869 0.114 3.428-1.442 3.428-3.313v-2.865c0-0.005 0-0.010 0-0.016 0-1.683-1.267-3.071-2.9-3.259l-0.015-0.001z"></path>
</svg>
